<svg xmlns="http://www.w3.org/2000/svg" id="svg1" width="33" height="48" version="1.1">
  <path id="phone-outline" fill="#00f" fill-opacity=".3" d="M9 .34h15a5 5 0 0 1 5 5V27a5 5 0 0 1-5 5h-3.5l-4 9-4-9H9a5 5 0 0 1-5-5V5.34a5 5 0 0 1 5-5m0 2a3 3 0 0 0-3 3V27a3 3 0 0 0 3 3h4l3.5 8.8L20 30h4a3 3 0 0 0 3-3V5.34a3 3 0 0 0-3-3z"/>
  <path id="phone-body" fill="red" fill-opacity=".6" d="M9 2.34h15a3 3 0 0 1 3 3V27a3 3 0 0 1-3 3h-4l-3.5 8.8L13 30H9a3 3 0 0 1-3-3V5.34a3 3 0 0 1 3-3"/>
  <path id="phone-border" d="M9 2.34a3 3 0 0 0-3 3V27a3 3 0 0 0 3 3h4l3.5 8.8L20 30h4a3 3 0 0 0 3-3V5.34a3 3 0 0 0-3-3zm0 1h15a2 2 0 0 1 2 2V27a2 2 0 0 1-2 2h-5l-2.5 7.48L14 29H9a2 2 0 0 1-2-2V5.34c0-1.1.9-2 2-2m4 .5v1.25h7V3.84z" style="fill:#000;fill-opacity:.55000001"/>
  <circle id="circle1" cx="16.5" cy="38.8" r=".5" fill="#0f0"/>
</svg>
