<svg xmlns="http://www.w3.org/2000/svg" width="33" height="48">
  <path id="hand-outline" d="M13.72.27h.07C10.48.13 7.3 2.85 7.65 5.71v-.03c0 .04-.18.87-.62 1.64-.43.78-1.06 1.59-1.37 1.92a2.73 2.35 0 0 0 0 .01c-3 3.24-3.44 5.98-4.46 9.27-.2.62-.6 1.54-.71 2.73a5 5 0 0 0 1.5 4 2.73 2.35 0 0 0 .04.04c.7.64 1.35.89 1.86 1.02a4 4 0 0 0 1.19 1.72c.81.63 1.7.9 2.42 1.04.94.19 1.24.17 1.69.2.7.81 1.58 1.46 2.52 1.7.16.05.32.02.48.06-.1.63-.24.95-.2 1.79a2.73 2.35 0 0 0 .03.2c.38 2.5 1.39 4.49 1.81 6.26a2.73 2.35 0 0 0 .81 1.23l.04.03a2.73 2.35 0 0 0 4.4-.83c1.4-2.98 2.5-5.97 3.69-8.83l.02-.07c.58-1.27.92-2.23 1.3-3.02 1.66-.6 2.94-1.33 3.85-1.69a2.73 2.35 0 0 0 .06-.02c1-.43 2.05-1 2.95-1.88a4.6 4.6 0 0 0 1.46-3.71c-.29-2.69-.5-5.79-2.23-8.77l-.01-.01v-.01c-1.2-2.12-.98-1.66-.7-4.09.1-.78.26-1.81-.07-3.05a5.1 5.1 0 0 0-3.42-3.3c-4.41-1.38-8.7-.9-12.26-.99m-.07 2.35c3.82.08 7.79-.3 11.43.85 2 .6 1.86 2.42 1.68 3.9-.29 2.45-.36 3.04.96 5.38 1.43 2.45 1.68 5.26 1.97 7.97.18 1.48-1.36 2.6-2.9 3.25-1.64.65-3.03 1.69-4.82 2.07-.78 1.21-1.14 2.66-1.75 3.99-1.21 2.92-2.32 5.9-3.68 8.8l-.03-.03c-.5-2.07-1.47-4.02-1.79-6.08-.07-1.4.47-2.72.47-4.11-1.57.59-4.11.24-4.32-1.48-1.5-.38-4.29.12-4.58-1.98 0-1.18-1.5-.76-2.28-1.47-1.43-1.36-.65-3.1-.18-4.52 1.07-3.46 1.32-5.59 3.96-8.45.97-1.03 2.72-3.55 2.58-5.2a3.14 2.6 0 0 1 3.28-2.9" style="display:inline;fill:#00f;stroke-width:1.05898"/>
  <path id="hand-body" fill="red" fill-opacity=".6" d="M16.5 38.8c-.5-2.07-1.46-4.02-1.78-6.08-.07-1.4.47-2.72.47-4.11-1.57.6-4.11.24-4.32-1.48-1.5-.38-4.3.12-4.58-1.98 0-1.18-1.5-.76-2.28-1.47-1.43-1.36-.65-3.1-.18-4.52 1.07-3.46 1.32-5.59 3.96-8.45.97-1.03 2.72-3.55 2.58-5.2a3.14 2.6 0 0 1 3.28-2.9c3.82.1 7.79-.29 11.43.86 2 .6 1.86 2.42 1.68 3.9-.29 2.45-.36 3.04.96 5.38 1.43 2.45 1.68 5.26 1.97 7.97.18 1.48-1.36 2.6-2.9 3.25-1.64.65-3.03 1.69-4.82 2.07-.78 1.21-1.14 2.66-1.75 3.99-1.21 2.92-2.32 5.9-3.68 8.8z" style="display:inline;stroke-width:1.05898"/>
  <path id="hand-border" fill-opacity=".5" d="M13.65 2.62a3.14 2.6 0 0 0-3.28 2.9c.14 1.64-1.61 4.16-2.58 5.19-2.64 2.86-2.92 5.02-3.96 8.45-.47 1.47-1.25 3.19.18 4.49.78.74 2.32.3 2.28 1.5.29 2.07 3.08 1.6 4.58 2.01.21 1.69 2.75 2.07 4.32 1.48 0 1.36-.54 2.69-.47 4.08.32 2.06 1.29 4.04 1.79 6.08l.07.03c1.36-2.9 2.46-5.88 3.68-8.8.6-1.33.96-2.78 1.78-4.02 1.79-.35 3.15-1.39 4.79-2.07 1.54-.59 3.07-1.71 2.9-3.25-.3-2.65-.54-5.49-1.97-7.94-1.36-2.34-1.25-2.93-.97-5.38.18-1.48.36-3.28-1.71-3.9-3.64-1.15-7.6-.77-11.43-.85m0 .8c3.9.08 7.72-.21 11.07.8.75.2.97.52 1.15 1.05.17.54.07 1.3 0 2.01-.33 2.45-.36 3.43 1.07 5.82 1.28 2.28 1.53 4.96 1.85 7.68a2.14 1.77 0 0 1-.6 1.4q-.72.61-1.79 1.08c-1.6.65-2.86 1.51-4.21 1.9l1.78-5.18a.43.36 0 1 0-.82-.2l-2 6c-.82 1.32-1.18 2.74-1.75 3.95l-2.68 6.5a32.14 26.59 0 0 1-1.03-3.57c-.04-1.18.46-2.51.5-4.02V27.4l.96-3.63a.44.36 0 0 0-.86-.15l-1.1 4.16-.36.12a3.57 2.95 0 0 1-2 .09q-.9-.18-1-.89l-.07-.53h-.04l1.07-4.4a.47.4 0 0 0-.92-.15l-1.08 4.32c-.89-.21-1.78-.18-2.46-.3a3.57 2.95 0 0 1-.79-.3q-.21-.17-.32-.62a2.14 1.77 0 0 0-.5-1.12l.9-3.69a.43.35 0 1 0-.83-.12l-.82 3.37-.25-.06q-.78-.2-1-.38c-.53-.48-.6-.95-.57-1.6q.18-1 .57-2.16c1.07-3.48 1.32-5.43 3.82-8.18.54-.59 1.25-1.47 1.79-2.5a5.6 5.6 0 0 0 .96-3.26c-.1-1.18.83-2.04 2.36-2" style="stroke-width:1.05898"/>
  <ellipse cx="16.51" cy="38.8" fill="#0f0" rx=".58" ry=".5" style="stroke-width:1.0791"/>
</svg>
