<svg xmlns="http://www.w3.org/2000/svg" width="33" height="48" viewBox="0 0 33 48">
  <!-- TRACKER_OUTLINE_PATH: white halo ring (shown in blue for visibility) -->
  <path id="tracker-outline" d="M16.5 2.074C7.84 2.074.775 9.138.775 17.8c0 3.735 1.97 7.331 4.43 11.058 2.46 3.726 5.538 7.56 8.248 11.254.662.907 1.767 1.662 3.047 1.662 1.28 0 2.385-.755 3.047-1.662 2.714-3.7 5.792-7.572 8.25-11.314 2.458-3.743 4.428-7.315 4.428-10.998 0-8.661-7.064-15.725-15.725-15.725zm0 2.225c7.46 0 13.5 6.04 13.5 13.5 0 5.57-6.75 13.5-12.25 21-.73 1-1.77 1-2.5 0-5.5-7.5-12.25-15.28-12.25-21 0-7.46 6.04-13.5 13.5-13.5z" fill="blue" fill-opacity="0.3" />
  <!-- TRACKER_PATH: body fill -->
  <path id="tracker-body" d="M30 17.8c0 5.57-6.75 13.5-12.25 21-.73 1-1.77 1-2.5 0C9.75 31.3 3 23.52 3 17.8 3 10.34 9.04 4.3 16.5 4.3S30 10.34 30 17.8z" fill="red" fill-opacity="0.6" />
  <!-- TRACKER_BORDER_PATH: dark border ring -->
  <path id="tracker-border" d="M16.5 4.3C9.04 4.3 3 10.34 3 17.8c0 5.72 6.75 13.5 12.25 21 .75 1.02 1.77 1 2.5 0C23.25 31.3 30 23.37 30 17.8c0-7.46-6.04-13.5-13.5-13.5zm0 1c6.92 0 12.5 5.58 12.5 12.5 0 2.4-1.5 5.68-3.78 9.24-2.27 3.56-5.51 7.4-8.28 11.17-.2.27-.33.41-.44.53-.11-.12-.24-.26-.44-.53-2.78-3.78-5.65-7.6-8.04-11.14C5.62 23.53 4 20.25 4 17.8 4 10.88 9.58 5.3 16.5 5.3z" fill="black" fill-opacity="0.5" />
  <!-- tip marker -->
  <circle cx="16.5" cy="38.8" r="0.5" fill="lime" />
</svg>
