<?xml version="1.0" encoding="UTF-8" standalone="no"?>
<svg
   width="30"
   height="32"
   viewBox="0 0 30 31.999999"
   version="1.1"
   id="svg1"
   inkscape:version="1.3.2 (091e20e, 2023-11-25)"
   sodipodi:docname="mapnote-base.svg"
   xmlns:inkscape="http://www.inkscape.org/namespaces/inkscape"
   xmlns:sodipodi="http://sodipodi.sourceforge.net/DTD/sodipodi-0.dtd"
   xmlns:xlink="http://www.w3.org/1999/xlink"
   xmlns="http://www.w3.org/2000/svg"
   xmlns:svg="http://www.w3.org/2000/svg">
  <defs
     id="defs1">
    <linearGradient
       id="linearGradient2"
       inkscape:collect="always">
      <stop
         style="stop-color:#000000;stop-opacity:0.40394089;"
         offset="0"
         id="stop3" />
      <stop
         style="stop-color:#000000;stop-opacity:0.04926108;"
         offset="0.94999999"
         id="stop5" />
      <stop
         style="stop-color:#000000;stop-opacity:0;"
         offset="1"
         id="stop4" />
    </linearGradient>
    <radialGradient
       inkscape:collect="always"
       xlink:href="#linearGradient2"
       id="radialGradient2"
       cx="16.500011"
       cy="41.773998"
       fx="16.500011"
       fy="41.773998"
       r="9.3088531"
       gradientTransform="matrix(0.89658292,-1.9777264e-7,3.3435521e-8,0.3686456,-5.6721527,12.295884)"
       gradientUnits="userSpaceOnUse" />
  </defs>
  <sodipodi:namedview
     id="namedview1"
     pagecolor="#505050"
     bordercolor="#eeeeee"
     borderopacity="1"
     inkscape:showpageshadow="0"
     inkscape:pageopacity="0"
     inkscape:pagecheckerboard="0"
     inkscape:deskcolor="#d1d1d1"
     showguides="false"
     inkscape:zoom="13.635811"
     inkscape:cx="35.3481"
     inkscape:cy="22.03756"
     inkscape:window-width="1752"
     inkscape:window-height="996"
     inkscape:window-x="2590"
     inkscape:window-y="352"
     inkscape:window-maximized="0"
     inkscape:current-layer="svg1" />
  <rect
     style="fill:url(#radialGradient2);fill-opacity:1;stroke:none;stroke-width:1.0654;stroke-opacity:0.25"
     id="rect1"
     width="16.69232"
     height="6.8633394"
     x="0.7753166"
     y="24.264011" />
  <path
     d="M 10.136477,0.9556793 V 17.095681 c 0.16,0.06 0.329999,0.1 0.479999,0.199999 0.37,0.18 1.47,0.52 2.04,0.63 1.16,0.100001 2.4,0.19 3.53,-0.23 1.448596,-0.509523 2.719419,-1.426182 3.66,-2.64 2.16,-2.45 6.15,-4.5 9.7,-5.8500002 0.09,-0.06 -1.11,-1 -2.03,-1.56 -2.358254,-1.457544 -5.058883,-2.268078 -7.83,-2.35 -3.19,-0.17 -5.73,-0.52 -8.63,-2.8 -0.46,-0.5700003 -0.56,-1.1500003 -0.919999,-1.5400005 z"
     style="fill:#ffee58;fill-opacity:1"
     id="path1"
     sodipodi:nodetypes="ccccccccccc" />
  <path
     d="m 7.3964762,0.39567924 z m 0.3200004,0.01 0.09,0.02 -0.1,-0.02 z m 0.28,0.04 0.05,0.01 z m 0.24,0.06 0.06,0.01 z m 0.18,0.06 0.1,0.04 z m 0.14,0.07 0.11,0.06 -0.1,-0.06 z m 0.11,0.06 z m 0.24,0.19999996 V 17.03568 c 0.16,0.06 0.33,0.1 0.48,0.200001 0.3700001,0.18 1.4699994,0.519999 2.0399994,0.629999 1.16,0.1 2.4,0.190001 3.53,-0.23 a 7.98,7.98 0 0 0 3.66,-2.64 c 2.16,-2.45 6.15,-4.5 9.7,-5.8500003 0.09,-0.06 -1.11,-1 -2.03,-1.56 a 15.78,15.78 0 0 0 -7.83,-2.35 c -3.19,-0.17 -5.73,-0.52 -8.6299993,-2.8 C 9.3664766,1.8656795 9.2664766,1.2856795 8.9064766,0.8956792 Z M 6.2264762,3.1756798 Z"
     style="fill:none"
     id="path1-7" />
  <path
     d="m 8.9964766,0.45567924 c -0.34,0 -0.67,0.14 -0.82,0.54000006 -0.07,0.2000002 -0.07,1.3000005 -0.07,13.4500017 v 13.25 H 10.136477 V 0.9556793 C 9.9364771,0.65567925 9.6164767,0.46567924 8.9964766,0.45567924 Z"
     style="fill:#333333;fill-opacity:1"
     id="path2" />
  <path
     id="path6"
     style="color:#000000;fill:#000000;fill-opacity:0.250896;-inkscape-stroke:none"
     d="M 10.136633,0.9562263 V 17.094899 c 0.16,0.06 0.330468,0.101172 0.480468,0.201172 0.37,0.179999 1.469063,0.518906 2.039063,0.628906 1.159998,0.1 2.401251,0.191484 3.53125,-0.228516 1.448594,-0.509521 2.717623,-1.426807 3.658203,-2.640624 2.159997,-2.449997 6.151175,-4.49961 9.701171,-5.8496102 0.09,-0.06 -1.11125,-1.000548 -2.03125,-1.560547 -2.358251,-1.457543 -5.05701,-2.267687 -7.828124,-2.349609 -3.189997,-0.17 -5.730863,-0.520784 -8.63086,-2.800782 C 10.596555,1.9252895 10.496632,1.3462255 10.136633,0.9562263 Z m 0.849609,2.5000005 c 2.881957,2.09522 5.588842,2.524137 8.654296,2.6875 l 0.01172,0.002 h 0.0098 c 2.621887,0.07751 5.176945,0.843604 7.408203,2.222656 l 0.002,0.002 0.002,0.002 c 0.28851,0.175615 0.600391,0.408731 0.904297,0.628907 -3.268496,1.3531672 -6.69215,3.1359002 -8.769531,5.4921882 l -0.01758,0.01953 -0.01758,0.02148 c -0.840435,1.084578 -1.975173,1.904102 -3.269532,2.359375 l -0.0078,0.002 -0.0059,0.0039 c -0.890774,0.331085 -1.983433,0.274583 -3.11914,0.177734 -0.475782,-0.09969 -1.634409,-0.474488 -1.783203,-0.546875 l 0.09961,0.05859 c -0.04818,-0.03212 -0.05654,-0.01992 -0.101562,-0.04492 z" />
</svg>
