<?xml version="1.0" encoding="UTF-8" standalone="no"?>
<!-- Created with Inkscape (http://www.inkscape.org/) -->

<svg
   version="1.1"
   id="svg1"
   width="682.66669"
   height="682.66669"
   viewBox="0 0 682.66669 682.66669"
   sodipodi:docname="favicon.svg"
   inkscape:version="1.3.2 (091e20e, 2023-11-25)"
   xmlns:inkscape="http://www.inkscape.org/namespaces/inkscape"
   xmlns:sodipodi="http://sodipodi.sourceforge.net/DTD/sodipodi-0.dtd"
   xmlns="http://www.w3.org/2000/svg"
   xmlns:svg="http://www.w3.org/2000/svg">
  <defs
     id="defs1" />
  <sodipodi:namedview
     id="namedview1"
     pagecolor="#505050"
     bordercolor="#eeeeee"
     borderopacity="1"
     inkscape:showpageshadow="0"
     inkscape:pageopacity="0"
     inkscape:pagecheckerboard="0"
     inkscape:deskcolor="#d1d1d1"
     showgrid="false"
     inkscape:zoom="0.41208709"
     inkscape:cx="385.84077"
     inkscape:cy="765.61487"
     inkscape:window-width="1512"
     inkscape:window-height="916"
     inkscape:window-x="0"
     inkscape:window-y="38"
     inkscape:window-maximized="0"
     inkscape:current-layer="g1">
    <inkscape:page
       x="0"
       y="0"
       inkscape:label="1"
       id="page1"
       width="682.66669"
       height="682.66669"
       margin="0"
       bleed="0" />
  </sodipodi:namedview>
  <g
     id="g1"
     inkscape:groupmode="layer"
     inkscape:label="1">
    <path
       id="path150"
       style="fill:#4caf50;fill-opacity:1;stroke:none;stroke-width:23.2851;stroke-linecap:round;stroke-linejoin:round;stroke-miterlimit:4;stroke-dasharray:none;stroke-opacity:1"
       d="m 561.48346,504.61008 v 0 c -38.66028,28.19656 -83.96997,47.20834 -135.92907,57.03302 v 0 c -51.95907,9.49983 -103.4496,8.39213 -154.4642,-3.32958 v 0 C 219.76375,546.58862 175.88167,525.84131 139.44568,496.0547 v 0 C 103.00563,466.27053 78.767199,431.57972 66.730398,391.97414 v 0 C 54.689555,352.05345 56.589849,312.76054 72.432893,274.10995 v 0 c 16.158944,-38.97538 43.887717,-72.23857 83.171737,-99.80577 v 0 c 39.28885,-27.56714 85.0736,-45.62476 137.35103,-54.18093 v 0 c 52.27985,-8.87126 103.92467,-6.97261 154.93848,5.70409 v 0 c 36.43843,9.18636 68.90985,22.80835 97.43041,40.87409 -33.58639,29.30694 -67.17279,58.61391 -100.75913,87.92084 -6.6575,-6.33431 -14.4138,-10.61644 -23.28506,-12.8302 -8.87205,-1.90677 -17.74331,-1.58361 -26.61543,0.9453 -8.55617,2.53692 -16.00379,7.13415 -22.33813,13.78355 -6.33428,6.65751 -10.45645,14.42186 -12.36238,23.29312 -1.89708,8.87126 -1.58113,17.58097 0.95336,26.13714 2.85286,8.55453 7.76684,15.84224 14.7386,21.86384 6.64938,6.33428 14.4138,10.29164 23.28507,11.87604 9.18392,1.90673 18.05599,1.43006 26.61294,-1.4228 8.87126,-2.85042 23.63198,-12.76849 23.63198,-12.76849 L 623.73584,439.4984 c -15.89288,26.00262 -38.03819,46.97183 -62.25238,65.11168 z"
       sodipodi:nodetypes="ssssssssssssssssssscccccccccccs" />
  </g>
</svg>
